<svg width="32" height="31" viewBox="0 0 32 31" fill="none" xmlns="http://www.w3.org/2000/svg">
<path d="M16.0036 7.50773C11.4632 7.50773 7.801 10.9536 7.801 15.2257C7.801 19.4978 11.4632 22.9437 16.0036 22.9437C20.5439 22.9437 24.2061 19.4978 24.2061 15.2257C24.2061 10.9536 20.5439 7.50773 16.0036 7.50773ZM16.0036 20.2434C13.0695 20.2434 10.6708 17.9932 10.6708 15.2257C10.6708 12.4583 13.0624 10.208 16.0036 10.208C18.9448 10.208 21.3363 12.4583 21.3363 15.2257C21.3363 17.9932 18.9376 20.2434 16.0036 20.2434ZM26.4549 7.19203C26.4549 8.19288 25.5982 8.99222 24.5417 8.99222C23.478 8.99222 22.6284 8.18616 22.6284 7.19203C22.6284 6.1979 23.4851 5.39184 24.5417 5.39184C25.5982 5.39184 26.4549 6.1979 26.4549 7.19203ZM31.8876 9.01909C31.7662 6.60764 31.1808 4.4716 29.3033 2.71171C27.4329 0.951823 25.1627 0.401019 22.5999 0.280111C19.9585 0.139052 12.0415 0.139052 9.40011 0.280111C6.8444 0.394302 4.57423 0.945106 2.69671 2.70499C0.819186 4.46488 0.240937 6.60092 0.112437 9.01237C-0.0374791 11.4977 -0.0374791 18.947 0.112437 21.4323C0.233798 23.8438 0.819186 25.9798 2.69671 27.7397C4.57423 29.4996 6.83726 30.0504 9.40011 30.1713C12.0415 30.3124 19.9585 30.3124 22.5999 30.1713C25.1627 30.0571 27.4329 29.5063 29.3033 27.7397C31.1737 25.9798 31.7591 23.8438 31.8876 21.4323C32.0375 18.947 32.0375 11.5044 31.8876 9.01909ZM28.4752 24.099C27.9184 25.4156 26.8404 26.4299 25.434 26.9605C23.3281 27.7464 18.3308 27.5651 16.0036 27.5651C13.6763 27.5651 8.67195 27.7397 6.57312 26.9605C5.1739 26.4366 4.09593 25.4223 3.53196 24.099C2.69671 22.1175 2.88946 17.4155 2.88946 15.2257C2.88946 13.0359 2.70385 8.32722 3.53196 6.35239C4.08879 5.03583 5.16676 4.02155 6.57312 3.4909C8.67909 2.70499 13.6763 2.88635 16.0036 2.88635C18.3308 2.88635 23.3352 2.71171 25.434 3.4909C26.8332 4.01483 27.9112 5.02912 28.4752 6.35239C29.3104 8.33394 29.1177 13.0359 29.1177 15.2257C29.1177 17.4155 29.3104 22.1242 28.4752 24.099Z" fill="white"/>
</svg>
