<svg width="32" height="30" viewBox="0 0 32 30" fill="none" xmlns="http://www.w3.org/2000/svg">
<path d="M16.0036 7.16127C11.4632 7.16127 7.801 10.5263 7.801 14.6981C7.801 18.8699 11.4632 22.2349 16.0036 22.2349C20.5439 22.2349 24.2061 18.8699 24.2061 14.6981C24.2061 10.5263 20.5439 7.16127 16.0036 7.16127ZM16.0036 19.598C13.0695 19.598 10.6708 17.4006 10.6708 14.6981C10.6708 11.9956 13.0624 9.79817 16.0036 9.79817C18.9448 9.79817 21.3363 11.9956 21.3363 14.6981C21.3363 17.4006 18.9376 19.598 16.0036 19.598ZM26.4549 6.85298C26.4549 7.83034 25.5982 8.61091 24.5417 8.61091C23.478 8.61091 22.6284 7.82378 22.6284 6.85298C22.6284 5.88218 23.4851 5.09505 24.5417 5.09505C25.5982 5.09505 26.4549 5.88218 26.4549 6.85298ZM31.8876 8.63715C31.7662 6.28231 31.1808 4.1964 29.3033 2.47783C27.4329 0.759255 25.1627 0.221381 22.5999 0.103311C19.9585 -0.0344371 12.0415 -0.0344371 9.40011 0.103311C6.8444 0.214822 4.57423 0.752696 2.69671 2.47127C0.819186 4.18984 0.240937 6.27575 0.112437 8.63059C-0.0374791 11.0576 -0.0374791 18.332 0.112437 20.759C0.233798 23.1138 0.819186 25.1997 2.69671 26.9183C4.57423 28.6369 6.83726 29.1748 9.40011 29.2928C12.0415 29.4306 19.9585 29.4306 22.5999 29.2928C25.1627 29.1813 27.4329 28.6434 29.3033 26.9183C31.1737 25.1997 31.7591 23.1138 31.8876 20.759C32.0375 18.332 32.0375 11.0641 31.8876 8.63715ZM28.4752 23.3631C27.9184 24.6487 26.8404 25.6392 25.434 26.1574C23.3281 26.9249 18.3308 26.7478 16.0036 26.7478C13.6763 26.7478 8.67195 26.9183 6.57312 26.1574C5.1739 25.6458 4.09593 24.6553 3.53196 23.3631C2.69671 21.4281 2.88946 16.8365 2.88946 14.6981C2.88946 12.5597 2.70385 7.96152 3.53196 6.03305C4.08879 4.7474 5.16676 3.75692 6.57312 3.23872C8.67909 2.47127 13.6763 2.64838 16.0036 2.64838C18.3308 2.64838 23.3352 2.47783 25.434 3.23872C26.8332 3.75036 27.9112 4.74084 28.4752 6.03305C29.3104 7.96808 29.1177 12.5597 29.1177 14.6981C29.1177 16.8365 29.3104 21.4346 28.4752 23.3631Z" fill="white"/>
</svg>
