<svg width="32" height="31" viewBox="0 0 32 31" fill="none" xmlns="http://www.w3.org/2000/svg">
<path d="M16.0036 7.33342C11.4632 7.33342 7.801 10.7793 7.801 15.0514C7.801 19.3235 11.4632 22.7694 16.0036 22.7694C20.5439 22.7694 24.2061 19.3235 24.2061 15.0514C24.2061 10.7793 20.5439 7.33342 16.0036 7.33342ZM16.0036 20.0691C13.0695 20.0691 10.6708 17.8188 10.6708 15.0514C10.6708 12.2839 13.0624 10.0337 16.0036 10.0337C18.9448 10.0337 21.3363 12.2839 21.3363 15.0514C21.3363 17.8188 18.9376 20.0691 16.0036 20.0691ZM26.4549 7.01771C26.4549 8.01856 25.5982 8.8179 24.5417 8.8179C23.478 8.8179 22.6284 8.01185 22.6284 7.01771C22.6284 6.02358 23.4851 5.21752 24.5417 5.21752C25.5982 5.21752 26.4549 6.02358 26.4549 7.01771ZM31.8876 8.84477C31.7662 6.43332 31.1808 4.29728 29.3033 2.53739C27.4329 0.777507 25.1627 0.226703 22.5999 0.105795C19.9585 -0.0352649 12.0415 -0.0352649 9.40011 0.105795C6.84439 0.219986 4.57423 0.77079 2.69671 2.53068C0.819186 4.29056 0.240937 6.42661 0.112437 8.83805C-0.0374791 11.3234 -0.0374791 18.7727 0.112437 21.258C0.233798 23.6695 0.819186 25.8055 2.69671 27.5654C4.57423 29.3253 6.83726 29.8761 9.40011 29.997C12.0415 30.138 19.9585 30.138 22.5999 29.997C25.1627 29.8828 27.4329 29.332 29.3033 27.5654C31.1737 25.8055 31.7591 23.6695 31.8876 21.258C32.0375 18.7727 32.0375 11.3301 31.8876 8.84477ZM28.4752 23.9247C27.9183 25.2413 26.8404 26.2556 25.434 26.7862C23.3281 27.5721 18.3308 27.3907 16.0036 27.3907C13.6763 27.3907 8.67195 27.5654 6.57312 26.7862C5.1739 26.2623 4.09593 25.248 3.53196 23.9247C2.69671 21.9432 2.88946 17.2412 2.88946 15.0514C2.88946 12.8616 2.70385 8.15291 3.53196 6.17807C4.08879 4.86152 5.16676 3.84723 6.57312 3.31658C8.67908 2.53068 13.6763 2.71204 16.0036 2.71204C18.3308 2.71204 23.3352 2.53739 25.434 3.31658C26.8332 3.84051 27.9112 4.8548 28.4752 6.17807C29.3104 8.15962 29.1177 12.8616 29.1177 15.0514C29.1177 17.2412 29.3104 21.9499 28.4752 23.9247Z" fill="white"/>
</svg>
